<svg width="41" height="42" viewBox="0 0 41 42" fill="none" xmlns="http://www.w3.org/2000/svg">
<rect x="0.234375" y="0.917969" width="40.4398" height="40.4398" rx="20.2199" fill="#F7F9FA"/>
<path d="M27.4882 18.2701H24.8933C23.7723 18.2701 23.1016 17.5993 23.1016 16.4784V13.8835C23.1016 12.7626 23.7723 12.0918 24.8933 12.0918H27.4882C28.6091 12.0918 29.2799 12.7626 29.2799 13.8835V16.4784C29.2799 17.5993 28.6091 18.2701 27.4882 18.2701ZM27.6823 15.3486C27.5764 15.2427 27.4352 15.1898 27.294 15.1898C27.1528 15.1898 27.0115 15.2427 26.9056 15.3486L26.7468 15.5075V13.5305C26.7468 13.2215 26.4996 12.9744 26.1907 12.9744C25.8818 12.9744 25.6347 13.2215 25.6347 13.5305V15.5075L25.4758 15.3486C25.264 15.1368 24.9109 15.1368 24.6991 15.3486C24.4873 15.5605 24.4873 15.9135 24.6991 16.1253L25.8024 17.2286C25.8465 17.2727 25.9083 17.308 25.9701 17.3345C25.9877 17.3433 26.0054 17.3433 26.023 17.3522C26.0671 17.3698 26.1113 17.3787 26.1642 17.3787C26.1819 17.3787 26.1995 17.3787 26.2172 17.3787C26.279 17.3787 26.3319 17.3698 26.3937 17.3433C26.4025 17.3433 26.4025 17.3433 26.4114 17.3433C26.4731 17.3169 26.5261 17.2816 26.5702 17.2374C26.5791 17.2286 26.5791 17.2286 26.5879 17.2286L27.6912 16.1253C27.903 15.9135 27.903 15.5605 27.6823 15.3486Z" fill="black"/>
<path d="M11.6289 20.6617V25.0748C11.6289 27.096 13.2617 28.7288 15.2829 28.7288H25.6183C27.6395 28.7288 29.2812 27.0871 29.2812 25.066V20.6617C29.2812 20.0704 28.8046 19.5938 28.2132 19.5938H12.6969C12.1055 19.5937 11.6289 20.0704 11.6289 20.6617ZM16.9246 25.772H15.1594C14.7975 25.772 14.4974 25.472 14.4974 25.1101C14.4974 24.7482 14.7975 24.4481 15.1594 24.4481H16.9246C17.2865 24.4481 17.5865 24.7482 17.5865 25.1101C17.5865 25.472 17.2865 25.772 16.9246 25.772ZM22.6616 25.772H19.1311C18.7693 25.772 18.4692 25.472 18.4692 25.1101C18.4692 24.7482 18.7693 24.4481 19.1311 24.4481H22.6616C23.0234 24.4481 23.3235 24.7482 23.3235 25.1101C23.3235 25.472 23.0234 25.772 22.6616 25.772Z" fill="black"/>
<path d="M21.779 14.6148V17.2009C21.779 17.7922 21.3024 18.2689 20.711 18.2689H12.6969C12.0967 18.2689 11.6289 17.7746 11.6289 17.1832C11.6377 16.1859 12.0349 15.2768 12.6969 14.6148C13.3588 13.9529 14.2767 13.5469 15.2829 13.5469H20.711C21.3024 13.5469 21.779 14.0235 21.779 14.6148Z" fill="black"/>
</svg>
