<svg width="24" height="24" viewBox="0 0 24 24" fill="none" xmlns="http://www.w3.org/2000/svg">
<rect width="24" height="24" rx="4" fill="#1652F0"/>
<path d="M12 3C16.9708 3 21 7.02917 21 12C21 16.9708 16.9708 21 12 21C7.02917 21 3 16.9708 3 12C3 7.02917 7.02917 3 12 3ZM9.7832 9.12305C9.41935 9.12309 9.12305 9.44178 9.12305 9.83301V14.166C9.12305 14.5572 9.41833 14.8759 9.7832 14.876H14.2158C14.5797 14.876 14.876 14.5583 14.876 14.166V9.83301C14.876 9.44175 14.5807 9.12305 14.2158 9.12305H9.7832Z" fill="white"/>
</svg>
