<svg width="25" height="24" viewBox="0 0 25 24" fill="none" xmlns="http://www.w3.org/2000/svg">
<mask id="mask0_2210_11551" style="mask-type:alpha" maskUnits="userSpaceOnUse" x="0" y="0" width="25" height="24">
<rect x="0.5" width="24" height="24" fill="#D9D9D9"/>
</mask>
<g mask="url(#mask0_2210_11551)">
<path d="M5.5 17V10H7.5V17H5.5ZM11.5 17V10H13.5V17H11.5ZM2.5 8V6L12.5 1L22.5 6V8H2.5ZM2.5 21V19H14.55C14.5833 19.35 14.625 19.6875 14.675 20.0125C14.725 20.3375 14.8 20.6667 14.9 21H2.5ZM17.5 13.25V10H19.5V12.25L17.5 13.25ZM20.5 24C19.35 23.7167 18.3958 23.0542 17.6375 22.0125C16.8792 20.9708 16.5 19.8167 16.5 18.55V16L20.5 14L24.5 16V18.55C24.5 19.8167 24.1208 20.9708 23.3625 22.0125C22.6042 23.0542 21.65 23.7167 20.5 24ZM19.775 21L23.25 17.55L22.2 16.5L19.775 18.875L18.8 17.9L17.75 18.975L19.775 21Z" fill="white"/>
</g>
</svg>
