<svg width="24" height="24" viewBox="0 0 24 24" fill="none" xmlns="http://www.w3.org/2000/svg">
<rect width="24" height="24" rx="4" fill="#12FF80"/>
<path d="M19.9438 11.9941C20.5244 11.9941 20.9985 12.4525 20.9985 13.041V16.3311C20.9985 16.9117 20.5284 17.3857 19.9438 17.3857H18.4312C17.8509 17.386 17.3776 17.7966 17.3774 18.3809V19.9453C17.3774 20.5259 16.9151 21 16.3306 21H8.11572C7.53522 20.9999 7.06104 20.5299 7.06104 19.9453V17.9902C7.06104 17.4096 7.53127 16.9356 8.11572 16.9355H15.8843C16.4648 16.9355 16.939 16.4654 16.939 15.8809V13.0488C16.939 12.4682 17.4091 11.9941 17.9937 11.9941H19.9438ZM12.9536 9.94434C13.5657 9.94434 14.0599 10.4416 14.0601 11.0498V12.9258C14.0601 13.538 13.5618 14.0322 12.9536 14.0322H11.0776C10.4656 14.0321 9.97217 13.534 9.97217 12.9258V11.0498C9.97229 10.4378 10.4696 9.94448 11.0776 9.94434H12.9536ZM15.8765 3C16.457 3.00003 16.9312 3.47011 16.9312 4.05469V6.00586C16.9312 6.58649 16.4609 7.06052 15.8765 7.06055H8.11572C7.53525 7.06064 7.06104 7.5307 7.06104 8.11523L7.06494 10.9395C7.06493 11.52 6.59557 11.994 6.01123 11.9941H4.06006C3.47555 11.9941 3.00146 11.5475 3.00146 10.9629V7.66895C3.00146 7.0883 3.47165 6.61426 4.05615 6.61426H5.55713C6.13749 6.61403 6.61084 6.14402 6.61084 5.55957V4.05469C6.61084 3.47409 7.08109 3.00008 7.66553 3H15.8765Z" fill="black"/>
</svg>
