<svg width="20" height="20" viewBox="0 0 20 20" fill="none" xmlns="http://www.w3.org/2000/svg">
<path d="M9.9974 18.3327C5.39502 18.3327 1.66406 14.6017 1.66406 9.99935C1.66406 5.39697 5.39502 1.66602 9.9974 1.66602C14.5997 1.66602 18.3307 5.39697 18.3307 9.99935C18.3307 14.6017 14.5997 18.3327 9.9974 18.3327ZM9.9974 16.666C13.6793 16.666 16.6641 13.6813 16.6641 9.99935C16.6641 6.31745 13.6793 3.33268 9.9974 3.33268C6.3155 3.33268 3.33073 6.31745 3.33073 9.99935C3.33073 13.6813 6.3155 16.666 9.9974 16.666ZM9.16406 12.4993H10.8307V14.166H9.16406V12.4993ZM10.8307 11.1286V11.666H9.16406V10.416C9.16406 9.95577 9.53715 9.58268 9.9974 9.58268C10.6877 9.58268 11.2474 9.02302 11.2474 8.33268C11.2474 7.64232 10.6877 7.08268 9.9974 7.08268C9.39098 7.08268 8.8854 7.51454 8.7714 8.08749L7.13682 7.76057C7.4027 6.42367 8.5824 5.41602 9.9974 5.41602C11.6082 5.41602 12.9141 6.72185 12.9141 8.33268C12.9141 9.65393 12.0355 10.77 10.8307 11.1286Z" fill="#4F4F4F"/>
</svg>
