<svg width="20" height="21" viewBox="0 0 20 21" fill="none" xmlns="http://www.w3.org/2000/svg">
<g clip-path="url(#clip0_2210_9003)">
<path d="M10.0013 18.8346C5.3988 18.8346 1.66797 15.1038 1.66797 10.5013C1.66797 5.8988 5.3988 2.16797 10.0013 2.16797C14.6038 2.16797 18.3346 5.8988 18.3346 10.5013C18.3346 15.1038 14.6038 18.8346 10.0013 18.8346ZM10.0013 17.168C11.7694 17.168 13.4651 16.4656 14.7153 15.2153C15.9656 13.9651 16.668 12.2694 16.668 10.5013C16.668 8.73319 15.9656 7.0375 14.7153 5.78726C13.4651 4.53701 11.7694 3.83464 10.0013 3.83464C8.23319 3.83464 6.5375 4.53701 5.28726 5.78726C4.03701 7.0375 3.33464 8.73319 3.33464 10.5013C3.33464 12.2694 4.03701 13.9651 5.28726 15.2153C6.5375 16.4656 8.23319 17.168 10.0013 17.168ZM9.16797 6.33464H10.8346V8.0013H9.16797V6.33464ZM9.16797 9.66797H10.8346V14.668H9.16797V9.66797Z" fill="#1D40C8"/>
</g>
<defs>
<clipPath id="clip0_2210_9003">
<rect width="20" height="20" fill="white" transform="translate(0 0.5)"/>
</clipPath>
</defs>
</svg>
