<svg width="24" height="24" viewBox="0 0 24 24" fill="none" xmlns="http://www.w3.org/2000/svg">
<rect width="24" height="24" rx="4" fill="#FAFAFA"/>
<path d="M20.1113 3.67456L13.0762 8.87861L14.3879 5.81079L20.1113 3.67456Z" fill="#E17726" stroke="#6366F1" stroke-width="0.25" stroke-linecap="round" stroke-linejoin="round"/>
<path d="M3.88873 3.67456L10.8596 8.92144L9.61211 5.81614L3.88873 3.67456ZM17.5788 15.737L15.7049 18.596L19.715 19.699L20.8608 15.8013L17.5788 15.737ZM3.14453 15.8013L4.28492 19.699L8.28433 18.596L6.42115 15.737L3.14453 15.8013Z" fill="#E27625" stroke="#E27625" stroke-width="0.25" stroke-linecap="round" stroke-linejoin="round"/>
<path d="M8.07017 10.9078L6.95654 12.5889L10.9185 12.771L10.79 8.50386L8.07017 10.9131V10.9078ZM15.9298 10.9131L13.1671 8.45032L13.0761 12.771L17.038 12.5889L15.9298 10.9131ZM8.28432 18.5961L10.6883 17.4396L8.62162 15.8334L8.28432 18.5961ZM13.317 17.4343L15.7049 18.5961L15.3837 15.8281L13.317 17.4343Z" fill="#E27625" stroke="#E27625" stroke-width="0.25" stroke-linecap="round" stroke-linejoin="round"/>
<path d="M15.705 18.596L13.3171 17.4396L13.5099 18.9922L13.4885 19.6508L15.705 18.596ZM8.28442 18.596L10.5117 19.6508L10.4956 18.9922L10.6883 17.4396L8.28442 18.596Z" fill="#D5BFB2" stroke="#D5BFB2" stroke-width="0.25" stroke-linecap="round" stroke-linejoin="round"/>
<path d="M10.5491 14.8L8.56812 14.2218L9.97085 13.5793L10.5544 14.8H10.5491ZM13.4456 14.8L14.0345 13.574L15.4426 14.2164L13.4456 14.8054V14.8Z" fill="#233447" stroke="#233447" stroke-width="0.25" stroke-linecap="round" stroke-linejoin="round"/>
<path d="M8.28432 18.596L8.63233 15.737L6.42114 15.8012L8.28432 18.596ZM15.3676 15.737L15.7049 18.596L17.5788 15.8012L15.3676 15.737ZM17.0434 12.5889L13.0815 12.7709L13.4455 14.8054L14.0345 13.574L15.4426 14.2165L17.0434 12.5889ZM8.56808 14.2218L9.97082 13.5793L10.5544 14.8001L10.9238 12.7655L6.96189 12.5889L8.56808 14.2218Z" fill="#CC6228" stroke="#CC6228" stroke-width="0.25" stroke-linecap="round" stroke-linejoin="round"/>
<path d="M6.96191 12.5889L8.62164 15.828L8.5681 14.2218L6.96191 12.5889ZM15.4426 14.2218L15.3783 15.828L17.0381 12.5889L15.4426 14.2218ZM10.9238 12.7709L10.5491 14.8054L11.0202 17.204L11.1273 14.0398L10.9238 12.7709ZM13.0761 12.7709L12.8834 14.0344L12.9798 17.204L13.4456 14.8001L13.0761 12.7655V12.7709Z" fill="#E27525" stroke="#E27525" stroke-width="0.25" stroke-linecap="round" stroke-linejoin="round"/>
<path d="M13.4456 14.8002L12.9798 17.2041L13.3171 17.4397L15.3783 15.8335L15.4426 14.2219L13.4456 14.8002ZM8.5681 14.2219L8.62164 15.8281L10.6883 17.4343L11.0202 17.2041L10.5544 14.8002L8.56274 14.2219H8.5681Z" fill="#F5841F" stroke="#F5841F" stroke-width="0.25" stroke-linecap="round" stroke-linejoin="round"/>
<path d="M13.4938 19.6507L13.5099 18.9921L13.3279 18.8422H10.6723L10.4956 18.9921L10.5117 19.6507L8.28442 18.5959L9.0661 19.2384L10.6455 20.3253H13.3493L14.934 19.2331L15.705 18.5959L13.4885 19.6507H13.4938Z" fill="#C0AC9D" stroke="#C0AC9D" stroke-width="0.25" stroke-linecap="round" stroke-linejoin="round"/>
<path d="M13.3171 17.4342L12.9798 17.204H11.0203L10.6883 17.4396L10.4956 18.9922L10.6723 18.8423H13.3278L13.5099 18.9922L13.3171 17.4396V17.4342Z" fill="#161616" stroke="#161616" stroke-width="0.25" stroke-linecap="round" stroke-linejoin="round"/>
<path d="M20.4111 9.21591L21 6.35154L20.1112 3.67456L13.3117 8.70728L15.9298 10.9078L19.624 11.9839L20.4378 11.0363L20.0845 10.7793L20.6466 10.2653L20.2183 9.93334L20.7805 9.50502L20.4057 9.21591H20.4111ZM3 6.34618L3.59964 9.21591L3.21416 9.49966L3.78703 9.92798L3.35872 10.2653L3.91553 10.7793L3.56217 11.0363L4.37597 11.9839L8.0702 10.9131L10.6883 8.70193L3.88876 3.67456L3 6.34618Z" fill="#763E1A" stroke="#763E1A" stroke-width="0.25" stroke-linecap="round" stroke-linejoin="round"/>
<path d="M19.624 11.9839L15.9298 10.9131L17.0434 12.5889L15.3837 15.828L17.5788 15.8013H20.8608L19.624 11.9839ZM8.07017 10.9078L4.37594 11.9839L3.14453 15.8013H6.42651L8.62163 15.828L6.9619 12.5889L8.07552 10.9078H8.07017ZM13.0761 12.7709L13.317 8.70193L14.3878 5.81079H9.61211L10.6829 8.70193L10.9238 12.7709L11.0148 14.0452V17.204H12.9797L12.9905 14.0452L13.0761 12.7709Z" fill="#F5841F" stroke="#F5841F" stroke-width="0.25" stroke-linecap="round" stroke-linejoin="round"/>
</svg>
