<svg width="24" height="24" viewBox="0 0 24 24" fill="none" xmlns="http://www.w3.org/2000/svg">
<path d="M11.0039 2L18.3022 4.28071C18.7196 4.41117 19.0039 4.79781 19.0039 5.23519V7H21.0039C21.5562 7 22.0039 7.44772 22.0039 8V10H9.00391V8C9.00391 7.44772 9.45163 7 10.0039 7H17.0039V5.97L11.0039 4.094L5.00391 5.97V13.3744C5.00391 14.6193 5.58309 15.7884 6.56232 16.5428L6.75057 16.6793L11.0039 19.579L14.7859 17H10.0039C9.45163 17 9.00391 16.5523 9.00391 16V12H22.0039V16C22.0039 16.5523 21.5562 17 21.0039 17L17.7838 17.0011C17.3972 17.5108 16.9266 17.9618 16.3839 18.3318L11.0039 22L5.62389 18.3318C3.98466 17.2141 3.00391 15.3584 3.00391 13.3744V5.23519C3.00391 4.79781 3.28816 4.41117 3.70564 4.28071L11.0039 2Z" fill="black"/>
</svg>
