<svg width="18" height="16" viewBox="0 0 18 16" fill="none" xmlns="http://www.w3.org/2000/svg">
<path d="M4.00003 7.125L3.16669 7.58333C2.97225 7.69444 2.76392 7.72222 2.54169 7.66667C2.31947 7.61111 2.15281 7.48611 2.04169 7.29167L0.375027 4.375C0.263916 4.18056 0.236138 3.97222 0.291694 3.75C0.347249 3.52778 0.472249 3.36111 0.666694 3.25L5.45836 0.5H6.91669C7.04169 0.5 7.14239 0.538194 7.21878 0.614583C7.29517 0.690972 7.33336 0.791667 7.33336 0.916667V1.33333C7.33336 1.79167 7.49656 2.18403 7.82294 2.51042C8.14933 2.83681 8.54169 3 9.00003 3C9.45836 3 9.85072 2.83681 10.1771 2.51042C10.5035 2.18403 10.6667 1.79167 10.6667 1.33333V0.916667C10.6667 0.791667 10.7049 0.690972 10.7813 0.614583C10.8577 0.538194 10.9584 0.5 11.0834 0.5H12.5417L17.3334 3.25C17.5278 3.36111 17.6528 3.52778 17.7084 3.75C17.7639 3.97222 17.7361 4.18056 17.625 4.375L15.9584 7.29167C15.8473 7.48611 15.6841 7.60764 15.4688 7.65625C15.2535 7.70486 15.0417 7.67361 14.8334 7.5625L14 7.14583V14.6667C14 14.9028 13.9202 15.1007 13.7604 15.2604C13.6007 15.4201 13.4028 15.5 13.1667 15.5H4.83336C4.59725 15.5 4.39933 15.4201 4.23961 15.2604C4.07989 15.1007 4.00003 14.9028 4.00003 14.6667V7.125ZM5.66669 4.33333V13.8333H12.3334V4.33333L14.9167 5.75L15.7917 4.29167L12.2084 2.20833C12 2.91667 11.6077 3.50347 11.0313 3.96875C10.4549 4.43403 9.77781 4.66667 9.00003 4.66667C8.22225 4.66667 7.54517 4.43403 6.96878 3.96875C6.39239 3.50347 6.00003 2.91667 5.79169 2.20833L2.20836 4.29167L3.08336 5.75L5.66669 4.33333Z" fill="#4F4F4F"/>
</svg>
