<svg width="23" height="23" viewBox="0 0 23 23" fill="none" xmlns="http://www.w3.org/2000/svg">
<path d="M3.5 16V9H5.5V16H3.5ZM9.5 16V9H11.5V16H9.5ZM0.5 7V5L10.5 0L20.5 5V7H0.5ZM0.5 20V18H12.55C12.5833 18.35 12.625 18.6875 12.675 19.0125C12.725 19.3375 12.8 19.6667 12.9 20H0.5ZM15.5 12.25V9H17.5V11.25L15.5 12.25ZM18.5 23C17.35 22.7167 16.3958 22.0542 15.6375 21.0125C14.8792 19.9708 14.5 18.8167 14.5 17.55V15L18.5 13L22.5 15V17.55C22.5 18.8167 22.1208 19.9708 21.3625 21.0125C20.6042 22.0542 19.65 22.7167 18.5 23ZM17.775 20L21.25 16.55L20.2 15.5L17.775 17.875L16.8 16.9L15.75 17.975L17.775 20Z" fill="white"/>
</svg>
