<svg width="34" height="34" viewBox="0 0 34 34" fill="none" xmlns="http://www.w3.org/2000/svg">
<mask id="mask0_588_850" style="mask-type:luminance" maskUnits="userSpaceOnUse" x="0" y="0" width="34" height="34">
<path d="M17.3147 33.7034C8.26283 33.7034 0.925903 26.3664 0.925903 17.3146C0.925903 8.26271 8.26283 0.925781 17.3147 0.925781C26.3665 0.925781 33.7035 8.26271 33.7035 17.3146C33.7035 26.3664 26.3665 33.7034 17.3147 33.7034Z" fill="white"/>
</mask>
<g mask="url(#mask0_588_850)">
<path fill-rule="evenodd" clip-rule="evenodd" d="M17.3147 17.3145L-5.8656 17.1716L-5.84462 16.3193L17.3147 17.3145Z" fill="#FEFEFF"/>
<path fill-rule="evenodd" clip-rule="evenodd" d="M17.3146 17.3146L-5.84863 16.4611L-5.81323 15.7505L17.3146 17.3146Z" fill="#FDFEFF"/>
<path fill-rule="evenodd" clip-rule="evenodd" d="M17.3147 17.3141L-5.82104 15.8929L-5.7686 15.1836L17.3147 17.3141Z" fill="#FCFDFF"/>
<path fill-rule="evenodd" clip-rule="evenodd" d="M17.3147 17.3146L-5.77905 15.3257L-5.70956 14.6177L17.3147 17.3146Z" fill="#FBFCFF"/>
<path fill-rule="evenodd" clip-rule="evenodd" d="M17.3146 17.3144L-5.72278 14.7591L-5.63625 14.0537L17.3146 17.3144Z" fill="#FAFCFF"/>
<path fill-rule="evenodd" clip-rule="evenodd" d="M17.3147 17.3144L-5.6532 14.1953L-5.54962 13.4912L17.3147 17.3144Z" fill="#F9FBFF"/>
<path fill-rule="evenodd" clip-rule="evenodd" d="M17.3147 17.3142L-5.56934 13.6313L-5.44871 12.9312L17.3147 17.3142Z" fill="#F8FAFF"/>
<path fill-rule="evenodd" clip-rule="evenodd" d="M17.3146 17.3143L-5.47241 13.0715L-5.33475 12.374L17.3146 17.3143Z" fill="#F7FAFF"/>
<path fill-rule="evenodd" clip-rule="evenodd" d="M17.3148 17.3142L-5.36206 12.5142L-5.20604 11.8193L17.3148 17.3142Z" fill="#F6F9FF"/>
<path fill-rule="evenodd" clip-rule="evenodd" d="M17.3147 17.3145L-5.23755 11.9587L-5.06448 11.269L17.3147 17.3145Z" fill="#F5F8FF"/>
<path fill-rule="evenodd" clip-rule="evenodd" d="M17.3147 17.3142L-5.09863 11.4064L-4.90983 10.7207L17.3147 17.3142Z" fill="#F4F8FF"/>
<path fill-rule="evenodd" clip-rule="evenodd" d="M17.3147 17.3141L-4.94788 10.8582L-4.74072 10.1777L17.3147 17.3141Z" fill="#F3F7FF"/>
<path fill-rule="evenodd" clip-rule="evenodd" d="M17.3146 17.3144L-4.78271 10.3144L-4.55852 9.63916L17.3146 17.3144Z" fill="#F2F6FF"/>
<path fill-rule="evenodd" clip-rule="evenodd" d="M17.3145 17.3146L-4.60449 9.77447L-4.36456 9.10449L17.3145 17.3146Z" fill="#F1F6FF"/>
<path fill-rule="evenodd" clip-rule="evenodd" d="M17.3144 17.3145L-4.41187 9.23812L-4.1562 8.57471L17.3144 17.3145Z" fill="#F0F5FF"/>
<path fill-rule="evenodd" clip-rule="evenodd" d="M17.3147 17.3145L-4.20703 8.70716L-3.93563 8.05029L17.3147 17.3145Z" fill="#EFF4FF"/>
<path fill-rule="evenodd" clip-rule="evenodd" d="M17.3145 17.3144L-3.98962 8.18122L-3.70118 7.53223L17.3145 17.3144Z" fill="#EEF3FF"/>
<path fill-rule="evenodd" clip-rule="evenodd" d="M17.3147 17.3143L-3.75867 7.66197L-3.45449 7.01953L17.3147 17.3143Z" fill="#EDF3FF"/>
<path fill-rule="evenodd" clip-rule="evenodd" d="M17.3146 17.3144L-3.51624 7.14809L-3.19633 6.51221L17.3146 17.3144Z" fill="#ECF2FF"/>
<path fill-rule="evenodd" clip-rule="evenodd" d="M17.3145 17.3144L-3.26062 6.6394L-2.92498 6.0127L17.3145 17.3144Z" fill="#EBF1FF"/>
<path fill-rule="evenodd" clip-rule="evenodd" d="M17.3145 17.3145L-2.99182 6.13871L-2.64176 5.51855L17.3145 17.3145Z" fill="#EAF1FF"/>
<path fill-rule="evenodd" clip-rule="evenodd" d="M17.3145 17.3143L-2.7113 5.64287L-2.34551 5.0332L17.3145 17.3143Z" fill="#E9F0FF"/>
<path fill-rule="evenodd" clip-rule="evenodd" d="M17.3146 17.3142L-2.41882 5.15502L-2.0386 4.55322L17.3146 17.3142Z" fill="#E8EFFF"/>
<path fill-rule="evenodd" clip-rule="evenodd" d="M17.3146 17.3142L-2.11462 4.67383L-1.71867 4.08252L17.3146 17.3142Z" fill="#E7EFFF"/>
<path fill-rule="evenodd" clip-rule="evenodd" d="M17.3147 17.3141L-1.79858 4.20045L-1.38952 3.61963L17.3147 17.3141Z" fill="#E6EEFF"/>
<path fill-rule="evenodd" clip-rule="evenodd" d="M17.3147 17.3145L-1.47083 3.73668L-1.04734 3.16504L17.3147 17.3145Z" fill="#E5EDFF"/>
<path fill-rule="evenodd" clip-rule="evenodd" d="M17.3146 17.3143L-1.13257 3.27893L-0.69466 2.71777L17.3146 17.3143Z" fill="#E4EDFF"/>
<path fill-rule="evenodd" clip-rule="evenodd" d="M17.3146 17.3144L-0.782593 2.8306L-0.331573 2.28125L17.3146 17.3144Z" fill="#E3ECFF"/>
<path fill-rule="evenodd" clip-rule="evenodd" d="M17.3145 17.3144L-0.420776 2.3914L0.043354 1.85254L17.3145 17.3144Z" fill="#E2EBFF"/>
<path fill-rule="evenodd" clip-rule="evenodd" d="M17.3146 17.3145L-0.0496826 1.96017L0.427559 1.43311L17.3146 17.3145Z" fill="#E1EBFF"/>
<path fill-rule="evenodd" clip-rule="evenodd" d="M17.3145 17.3144L0.331787 1.53919L0.82214 1.02393L17.3145 17.3144Z" fill="#E0EAFF"/>
<path fill-rule="evenodd" clip-rule="evenodd" d="M17.3146 17.3144L0.723877 1.12749L1.22734 0.624023L17.3146 17.3144Z" fill="#DFE9FF"/>
<path fill-rule="evenodd" clip-rule="evenodd" d="M17.3146 17.3146L1.12769 0.723905L1.64164 0.234863L17.3146 17.3146Z" fill="#DEE9FF"/>
<path fill-rule="evenodd" clip-rule="evenodd" d="M17.3147 17.3145L1.53955 0.331734L2.06661 -0.145508L17.3147 17.3145Z" fill="#DDE8FF"/>
<path fill-rule="evenodd" clip-rule="evenodd" d="M17.3147 17.3142L1.96033 -0.0500298L2.49919 -0.51416L17.3147 17.3142Z" fill="#DCE7FF"/>
<path fill-rule="evenodd" clip-rule="evenodd" d="M17.3145 17.3142L2.39148 -0.421051L2.94083 -0.87207L17.3145 17.3142Z" fill="#DBE7FF"/>
<path fill-rule="evenodd" clip-rule="evenodd" d="M17.3146 17.3145L2.83081 -0.782641L3.39196 -1.21924L17.3146 17.3145Z" fill="#DAE6FF"/>
<path fill-rule="evenodd" clip-rule="evenodd" d="M17.3145 17.3141L3.27917 -1.13315L3.85082 -1.55664L17.3145 17.3141Z" fill="#D9E5FF"/>
<path fill-rule="evenodd" clip-rule="evenodd" d="M17.3147 17.3147L3.73694 -1.47082L4.31776 -1.87988L17.3147 17.3147Z" fill="#D8E5FF"/>
<path fill-rule="evenodd" clip-rule="evenodd" d="M17.3146 17.3145L4.20093 -1.79872L4.79224 -2.19336L17.3146 17.3145Z" fill="#D7E4FF"/>
<path fill-rule="evenodd" clip-rule="evenodd" d="M17.3147 17.3143L4.67432 -2.1149L5.27611 -2.49512L17.3147 17.3143Z" fill="#D6E3FF"/>
<path fill-rule="evenodd" clip-rule="evenodd" d="M17.3146 17.3141L5.1554 -2.41936L5.76506 -2.78516L17.3146 17.3141Z" fill="#D5E3FF"/>
<path fill-rule="evenodd" clip-rule="evenodd" d="M17.3147 17.3143L5.64331 -2.71146L6.26215 -3.06152L17.3147 17.3143Z" fill="#D4E2FF"/>
<path fill-rule="evenodd" clip-rule="evenodd" d="M17.3146 17.3144L6.13879 -2.99199L6.7655 -3.32764L17.3146 17.3144Z" fill="#D3E1FF"/>
<path fill-rule="evenodd" clip-rule="evenodd" d="M17.3145 17.3141L6.63953 -3.26099L7.27541 -3.57959L17.3145 17.3141Z" fill="#D2E0FF"/>
<path fill-rule="evenodd" clip-rule="evenodd" d="M17.3146 17.3148L7.14832 -3.51598L7.79076 -3.81885L17.3146 17.3148Z" fill="#D1E0FF"/>
<path fill-rule="evenodd" clip-rule="evenodd" d="M17.3147 17.3149L7.66235 -3.75843L8.31266 -4.04688L17.3147 17.3149Z" fill="#D0DFFF"/>
<path fill-rule="evenodd" clip-rule="evenodd" d="M17.3147 17.3141L8.18152 -3.98999L8.83969 -4.2627L17.3147 17.3141Z" fill="#CFDEFF"/>
<path fill-rule="evenodd" clip-rule="evenodd" d="M17.3145 17.3145L8.70715 -4.20723L9.37188 -4.46289L17.3145 17.3145Z" fill="#CEDEFF"/>
<path fill-rule="evenodd" clip-rule="evenodd" d="M17.3148 17.3144L9.2384 -4.41192L9.90838 -4.65186L17.3148 17.3144Z" fill="#CDDDFF"/>
<path fill-rule="evenodd" clip-rule="evenodd" d="M17.3146 17.3144L9.77441 -4.6046L10.4496 -4.82617L17.3146 17.3144Z" fill="#CCDCFF"/>
<path fill-rule="evenodd" clip-rule="evenodd" d="M17.3146 17.3144L10.3146 -4.78293L10.995 -4.98877L17.3146 17.3144Z" fill="#CBDCFF"/>
<path fill-rule="evenodd" clip-rule="evenodd" d="M17.3146 17.3146L10.8588 -4.94792L11.5445 -5.13672L17.3146 17.3146Z" fill="#CADBFF"/>
<path fill-rule="evenodd" clip-rule="evenodd" d="M17.3146 17.3144L11.4067 -5.09891L12.0964 -5.27197L17.3146 17.3144Z" fill="#C9DAFF"/>
<path fill-rule="evenodd" clip-rule="evenodd" d="M17.3146 17.3144L11.9587 -5.23787L12.6523 -5.39258L17.3146 17.3144Z" fill="#C8DAFF"/>
<path fill-rule="evenodd" clip-rule="evenodd" d="M17.3146 17.3145L12.5146 -5.36233L13.2108 -5.5L17.3146 17.3145Z" fill="#C7D9FF"/>
<path fill-rule="evenodd" clip-rule="evenodd" d="M17.3146 17.3142L13.0719 -5.47279L13.772 -5.59473L17.3146 17.3142Z" fill="#C6D8FF"/>
<path fill-rule="evenodd" clip-rule="evenodd" d="M17.3146 17.3146L13.6317 -5.56943L14.3358 -5.67432L17.3146 17.3146Z" fill="#C5D8FF"/>
<path fill-rule="evenodd" clip-rule="evenodd" d="M17.3145 17.3142L14.1954 -5.6537L14.9008 -5.74023L17.3145 17.3142Z" fill="#C4D7FF"/>
<path fill-rule="evenodd" clip-rule="evenodd" d="M17.3145 17.3144L14.7592 -5.72299L15.4672 -5.79248L17.3145 17.3144Z" fill="#C3D6FF"/>
<path fill-rule="evenodd" clip-rule="evenodd" d="M17.3146 17.3142L15.3257 -5.77959L16.035 -5.83203L17.3146 17.3142Z" fill="#C2D6FF"/>
<path fill-rule="evenodd" clip-rule="evenodd" d="M17.3147 17.3143L15.8934 -5.82138L16.6041 -5.85547L17.3147 17.3143Z" fill="#C1D5FF"/>
<path fill-rule="evenodd" clip-rule="evenodd" d="M17.3147 17.3146L16.4612 -5.84868L17.1718 -5.86572L17.3147 17.3146Z" fill="#C0D4FF"/>
<path fill-rule="evenodd" clip-rule="evenodd" d="M17.3144 17.3144L17.0299 -5.86328H17.7405L17.3144 17.3144Z" fill="#BFD4FF"/>
<path fill-rule="evenodd" clip-rule="evenodd" d="M17.3147 17.3144L17.5992 -5.86328L18.3098 -5.84493L17.3147 17.3144Z" fill="#BED3FF"/>
<path fill-rule="evenodd" clip-rule="evenodd" d="M17.3147 17.3141L18.1682 -5.84912L18.8775 -5.81372L17.3147 17.3141Z" fill="#BDD2FF"/>
<path fill-rule="evenodd" clip-rule="evenodd" d="M17.3147 17.3144L18.7359 -5.82129L19.4452 -5.76885L17.3147 17.3144Z" fill="#BCD2FF"/>
<path fill-rule="evenodd" clip-rule="evenodd" d="M17.3147 17.3145L19.3036 -5.7793L20.0116 -5.70981L17.3147 17.3145Z" fill="#BBD1FF"/>
<path fill-rule="evenodd" clip-rule="evenodd" d="M17.3147 17.3147L19.8687 -5.72266L20.5754 -5.63612L17.3147 17.3147Z" fill="#BAD0FF"/>
<path fill-rule="evenodd" clip-rule="evenodd" d="M17.3147 17.3141L20.4338 -5.65381L21.1379 -5.55023L17.3147 17.3141Z" fill="#B9D0FF"/>
<path fill-rule="evenodd" clip-rule="evenodd" d="M17.3147 17.3142L20.9963 -5.56982L21.6977 -5.4492L17.3147 17.3142Z" fill="#B8CFFF"/>
<path fill-rule="evenodd" clip-rule="evenodd" d="M17.3147 17.3143L21.5574 -5.47266L22.2549 -5.33499L17.3147 17.3143Z" fill="#B7CEFF"/>
<path fill-rule="evenodd" clip-rule="evenodd" d="M17.3147 17.3145L22.1146 -5.3623L22.8095 -5.20628L17.3147 17.3145Z" fill="#B6CDFF"/>
<path fill-rule="evenodd" clip-rule="evenodd" d="M17.3147 17.3145L22.6706 -5.23779L23.3602 -5.06473L17.3147 17.3145Z" fill="#B5CDFF"/>
<path fill-rule="evenodd" clip-rule="evenodd" d="M17.3147 17.3147L23.2225 -5.09863L23.9069 -4.90983L17.3147 17.3147Z" fill="#B4CCFF"/>
<path fill-rule="evenodd" clip-rule="evenodd" d="M17.3147 17.3143L23.7706 -4.94824L24.451 -4.74109L17.3147 17.3143Z" fill="#B3CBFF"/>
<path fill-rule="evenodd" clip-rule="evenodd" d="M17.3147 17.3141L24.3147 -4.7832L24.9899 -4.559L17.3147 17.3141Z" fill="#B2CBFF"/>
<path fill-rule="evenodd" clip-rule="evenodd" d="M17.3147 17.3145L24.8549 -4.60449L25.5248 -4.36456L17.3147 17.3145Z" fill="#B1CAFF"/>
<path fill-rule="evenodd" clip-rule="evenodd" d="M17.3147 17.3142L25.3911 -4.41211L26.0545 -4.15644L17.3147 17.3142Z" fill="#B0C9FF"/>
<path fill-rule="evenodd" clip-rule="evenodd" d="M17.3147 17.3147L25.9208 -4.20703L26.5789 -3.93563L17.3147 17.3147Z" fill="#AFC9FF"/>
<path fill-rule="evenodd" clip-rule="evenodd" d="M17.3147 17.3144L26.4465 -3.98975L27.0968 -3.7013L17.3147 17.3144Z" fill="#AEC8FF"/>
<path fill-rule="evenodd" clip-rule="evenodd" d="M17.3147 17.3141L26.967 -3.75928L27.6095 -3.4551L17.3147 17.3141Z" fill="#ADC7FF"/>
<path fill-rule="evenodd" clip-rule="evenodd" d="M17.3147 17.3142L27.481 -3.5166L28.1169 -3.19669L17.3147 17.3142Z" fill="#ACC7FF"/>
<path fill-rule="evenodd" clip-rule="evenodd" d="M17.3147 17.3144L27.9897 -3.26074L28.6164 -2.9251L17.3147 17.3144Z" fill="#ABC6FF"/>
<path fill-rule="evenodd" clip-rule="evenodd" d="M17.3147 17.3147L28.4905 -2.9917L29.1107 -2.64164L17.3147 17.3147Z" fill="#AAC5FF"/>
<path fill-rule="evenodd" clip-rule="evenodd" d="M17.3147 17.3144L28.9861 -2.71143L29.5958 -2.34563L17.3147 17.3144Z" fill="#A9C5FF"/>
<path fill-rule="evenodd" clip-rule="evenodd" d="M17.3147 17.3145L29.4739 -2.41895L30.0743 -2.03873L17.3147 17.3145Z" fill="#A8C4FF"/>
<path fill-rule="evenodd" clip-rule="evenodd" d="M17.3147 17.315L29.955 -2.11426L30.5463 -1.7183L17.3147 17.315Z" fill="#A7C3FF"/>
<path fill-rule="evenodd" clip-rule="evenodd" d="M17.3147 17.3144L30.4283 -1.79883L31.0092 -1.38976L17.3147 17.3144Z" fill="#A6C3FF"/>
<path fill-rule="evenodd" clip-rule="evenodd" d="M17.3147 17.3143L30.8925 -1.47119L31.4641 -1.04771L17.3147 17.3143Z" fill="#A5C2FF"/>
<path fill-rule="evenodd" clip-rule="evenodd" d="M17.3147 17.3144L31.3501 -1.13281L31.9099 -0.694904L17.3147 17.3144Z" fill="#A4C1FF"/>
<path fill-rule="evenodd" clip-rule="evenodd" d="M17.3147 17.3144L31.7985 -0.782715L32.3478 -0.331695L17.3147 17.3144Z" fill="#A3C1FF"/>
<path fill-rule="evenodd" clip-rule="evenodd" d="M17.3147 17.3144L32.2377 -0.420898L32.7765 0.0432319L17.3147 17.3144Z" fill="#A2C0FF"/>
<path fill-rule="evenodd" clip-rule="evenodd" d="M17.3147 17.3144L32.669 -0.0498047L33.1961 0.427437L17.3147 17.3144Z" fill="#A1BFFF"/>
<path fill-rule="evenodd" clip-rule="evenodd" d="M17.3147 17.3143L33.0899 0.331543L33.6052 0.821895L17.3147 17.3143Z" fill="#A0BFFF"/>
<path fill-rule="evenodd" clip-rule="evenodd" d="M17.3147 17.3143L33.5016 0.723633L34.005 1.2271L17.3147 17.3143Z" fill="#9FBEFF"/>
<path fill-rule="evenodd" clip-rule="evenodd" d="M17.3147 17.3148L33.9041 1.12793L34.3944 1.64188L17.3147 17.3148Z" fill="#9EBDFF"/>
<path fill-rule="evenodd" clip-rule="evenodd" d="M17.3147 17.3143L34.2974 1.53906L34.7747 2.06613L17.3147 17.3143Z" fill="#9DBDFF"/>
<path fill-rule="evenodd" clip-rule="evenodd" d="M17.3147 17.3143L34.6789 1.95996L35.1431 2.49882L17.3147 17.3143Z" fill="#9CBCFF"/>
<path fill-rule="evenodd" clip-rule="evenodd" d="M17.3147 17.3146L35.05 2.3916L35.501 2.94095L17.3147 17.3146Z" fill="#9BBBFF"/>
<path fill-rule="evenodd" clip-rule="evenodd" d="M17.3147 17.3143L35.4118 2.83057L35.8484 3.39172L17.3147 17.3143Z" fill="#9ABAFF"/>
<path fill-rule="evenodd" clip-rule="evenodd" d="M17.3147 17.3142L35.7619 3.27881L36.1854 3.85045L17.3147 17.3142Z" fill="#99BAFF"/>
<path fill-rule="evenodd" clip-rule="evenodd" d="M17.3147 17.3146L36.1002 3.73682L36.5092 4.31764L17.3147 17.3146Z" fill="#98B9FF"/>
<path fill-rule="evenodd" clip-rule="evenodd" d="M17.3147 17.3148L36.428 4.20117L36.8226 4.79248L17.3147 17.3148Z" fill="#97B8FF"/>
<path fill-rule="evenodd" clip-rule="evenodd" d="M17.3147 17.3147L36.7439 4.67432L37.1241 5.27611L17.3147 17.3147Z" fill="#96B8FF"/>
<path fill-rule="evenodd" clip-rule="evenodd" d="M17.3147 17.3144L37.0481 5.15527L37.4139 5.76494L17.3147 17.3144Z" fill="#95B7FF"/>
<path fill-rule="evenodd" clip-rule="evenodd" d="M17.3147 17.3145L37.3405 5.64307L37.6905 6.26191L17.3147 17.3145Z" fill="#94B6FF"/>
<path fill-rule="evenodd" clip-rule="evenodd" d="M17.3147 17.3145L37.6211 6.13867L37.9554 6.76538L17.3147 17.3145Z" fill="#93B6FF"/>
<path fill-rule="evenodd" clip-rule="evenodd" d="M17.3147 17.3142L37.8885 6.63916L38.2084 7.27505L17.3147 17.3142Z" fill="#92B5FF"/>
<path fill-rule="evenodd" clip-rule="evenodd" d="M17.3147 17.3147L38.1455 7.14844L38.4484 7.79088L17.3147 17.3147Z" fill="#91B4FF"/>
<path fill-rule="evenodd" clip-rule="evenodd" d="M17.3147 17.3145L38.3881 7.66211L38.6765 8.31242L17.3147 17.3145Z" fill="#90B4FF"/>
<path fill-rule="evenodd" clip-rule="evenodd" d="M17.3147 17.3143L38.6188 8.18115L38.8902 8.83933L17.3147 17.3143Z" fill="#8FB3FF"/>
<path fill-rule="evenodd" clip-rule="evenodd" d="M17.3147 17.3144L38.8365 8.70703L39.0921 9.37176L17.3147 17.3144Z" fill="#8EB2FF"/>
<path fill-rule="evenodd" clip-rule="evenodd" d="M17.3147 17.3147L39.041 9.23828L39.2809 9.90825L17.3147 17.3147Z" fill="#8DB2FF"/>
<path fill-rule="evenodd" clip-rule="evenodd" d="M17.3147 17.3141L39.2324 9.77393L39.4553 10.4491L17.3147 17.3141Z" fill="#8CB1FF"/>
<path fill-rule="evenodd" clip-rule="evenodd" d="M17.3147 17.3144L39.4107 10.3145L39.6179 10.9949L17.3147 17.3144Z" fill="#8BB0FF"/>
<path fill-rule="evenodd" clip-rule="evenodd" d="M17.3147 17.3148L39.5759 10.8589L39.766 11.5446L17.3147 17.3148Z" fill="#8AB0FF"/>
<path fill-rule="evenodd" clip-rule="evenodd" d="M17.3147 17.3146L39.728 11.4067L39.9011 12.0964L17.3147 17.3146Z" fill="#89AFFF"/>
<path fill-rule="evenodd" clip-rule="evenodd" d="M17.3147 17.3144L39.867 11.9585L40.0217 12.6521L17.3147 17.3144Z" fill="#88AEFF"/>
<path fill-rule="evenodd" clip-rule="evenodd" d="M17.3147 17.3141L39.9902 12.5142L40.1292 13.2104L17.3147 17.3141Z" fill="#87AEFF"/>
<path fill-rule="evenodd" clip-rule="evenodd" d="M17.3147 17.3145L40.1017 13.0718L40.2236 13.7719L17.3147 17.3145Z" fill="#86ADFF"/>
<path fill-rule="evenodd" clip-rule="evenodd" d="M17.3147 17.3147L40.1987 13.6318L40.3036 14.3359L17.3147 17.3147Z" fill="#85ACFF"/>
<path fill-rule="evenodd" clip-rule="evenodd" d="M17.3147 17.3144L40.2826 14.1953L40.3691 14.9007L17.3147 17.3144Z" fill="#84ACFF"/>
<path fill-rule="evenodd" clip-rule="evenodd" d="M17.3147 17.3141L40.3521 14.7588L40.4216 15.4668L17.3147 17.3141Z" fill="#83ABFF"/>
<path fill-rule="evenodd" clip-rule="evenodd" d="M17.3147 17.3146L40.4085 15.3257L40.4609 16.035L17.3147 17.3146Z" fill="#82AAFF"/>
<path fill-rule="evenodd" clip-rule="evenodd" d="M17.3147 17.3148L40.4504 15.8936L40.4845 16.6042L17.3147 17.3148Z" fill="#81AAFF"/>
<path fill-rule="evenodd" clip-rule="evenodd" d="M17.3147 17.3145L40.478 16.4609L40.495 17.1716L17.3147 17.3145Z" fill="#80A9FF"/>
<path fill-rule="evenodd" clip-rule="evenodd" d="M17.3147 17.3148L40.4911 17.0303V17.7409L17.3147 17.3148Z" fill="#7FA8FF"/>
<path fill-rule="evenodd" clip-rule="evenodd" d="M17.3147 17.3145L40.4911 17.599L40.474 18.3096L17.3147 17.3145Z" fill="#7EA7FF"/>
<path fill-rule="evenodd" clip-rule="evenodd" d="M17.3147 17.3145L40.478 18.168L40.4426 18.8773L17.3147 17.3145Z" fill="#7DA7FF"/>
<path fill-rule="evenodd" clip-rule="evenodd" d="M17.3147 17.3145L40.4504 18.7357L40.398 19.445L17.3147 17.3145Z" fill="#7CA6FF"/>
<path fill-rule="evenodd" clip-rule="evenodd" d="M17.3147 17.3145L40.4085 19.3034L40.339 20.0114L17.3147 17.3145Z" fill="#7BA5FF"/>
<path fill-rule="evenodd" clip-rule="evenodd" d="M17.3147 17.3145L40.3521 19.8685L40.2656 20.5752L17.3147 17.3145Z" fill="#7AA5FF"/>
<path fill-rule="evenodd" clip-rule="evenodd" d="M17.3147 17.3145L40.2826 20.4336L40.1777 21.1376L17.3147 17.3145Z" fill="#79A4FF"/>
<path fill-rule="evenodd" clip-rule="evenodd" d="M17.3147 17.3145L40.1987 20.996L40.0781 21.6975L17.3147 17.3145Z" fill="#78A3FF"/>
<path fill-rule="evenodd" clip-rule="evenodd" d="M17.3147 17.3145L40.1017 21.5572L39.9627 22.2547L17.3147 17.3145Z" fill="#77A3FF"/>
<path fill-rule="evenodd" clip-rule="evenodd" d="M17.3147 17.3145L39.9902 22.1144L39.8355 22.8093L17.3147 17.3145Z" fill="#76A2FF"/>
<path fill-rule="evenodd" clip-rule="evenodd" d="M17.3147 17.3145L39.867 22.6703L39.6939 23.3599L17.3147 17.3145Z" fill="#75A1FF"/>
<path fill-rule="evenodd" clip-rule="evenodd" d="M17.3147 17.3145L39.728 23.2223L39.5392 23.9067L17.3147 17.3145Z" fill="#74A1FF"/>
<path fill-rule="evenodd" clip-rule="evenodd" d="M17.3147 17.3145L39.5759 23.7703L39.3701 24.4508L17.3147 17.3145Z" fill="#73A0FF"/>
<path fill-rule="evenodd" clip-rule="evenodd" d="M17.3147 17.3145L39.4107 24.3144L39.1878 24.9897L17.3147 17.3145Z" fill="#729FFF"/>
<path fill-rule="evenodd" clip-rule="evenodd" d="M17.3147 17.3145L39.2324 24.8546L38.9938 25.5246L17.3147 17.3145Z" fill="#719FFF"/>
<path fill-rule="evenodd" clip-rule="evenodd" d="M17.3147 17.3145L39.041 25.3908L38.7853 26.0543L17.3147 17.3145Z" fill="#709EFF"/>
<path fill-rule="evenodd" clip-rule="evenodd" d="M17.3147 17.3145L38.8365 25.9205L38.5637 26.5787L17.3147 17.3145Z" fill="#6F9DFF"/>
<path fill-rule="evenodd" clip-rule="evenodd" d="M17.3147 17.3145L38.6188 26.4463L38.3304 27.0966L17.3147 17.3145Z" fill="#6E9DFF"/>
<path fill-rule="evenodd" clip-rule="evenodd" d="M17.3147 17.3145L38.3881 26.9668L38.0839 27.6092L17.3147 17.3145Z" fill="#6D9CFF"/>
<path fill-rule="evenodd" clip-rule="evenodd" d="M17.3147 17.3145L38.1455 27.4807L37.8256 28.1166L17.3147 17.3145Z" fill="#6C9BFF"/>
<path fill-rule="evenodd" clip-rule="evenodd" d="M17.3147 17.3145L37.8885 27.9895L37.5542 28.6162L17.3147 17.3145Z" fill="#6B9BFF"/>
<path fill-rule="evenodd" clip-rule="evenodd" d="M17.3147 17.3145L37.6211 28.4903L37.271 29.1104L17.3147 17.3145Z" fill="#6A9AFF"/>
<path fill-rule="evenodd" clip-rule="evenodd" d="M17.3147 17.3145L37.3405 28.9859L36.9747 29.5956L17.3147 17.3145Z" fill="#6999FF"/>
<path fill-rule="evenodd" clip-rule="evenodd" d="M17.3147 17.3145L37.0481 29.4736L36.6679 30.0741L17.3147 17.3145Z" fill="#6899FF"/>
<path fill-rule="evenodd" clip-rule="evenodd" d="M17.3147 17.3145L36.7439 29.9548L36.348 30.5461L17.3147 17.3145Z" fill="#6798FF"/>
<path fill-rule="evenodd" clip-rule="evenodd" d="M17.3147 17.3145L36.428 30.4281L36.0189 31.0089L17.3147 17.3145Z" fill="#6697FF"/>
<path fill-rule="evenodd" clip-rule="evenodd" d="M17.3147 17.3145L36.1002 30.8922L35.6767 31.4639L17.3147 17.3145Z" fill="#6597FF"/>
<path fill-rule="evenodd" clip-rule="evenodd" d="M17.3147 17.3145L35.7619 31.3498L35.324 31.9097L17.3147 17.3145Z" fill="#6496FF"/>
<path fill-rule="evenodd" clip-rule="evenodd" d="M17.3147 17.3145L35.4118 31.7982L34.9608 32.3476L17.3147 17.3145Z" fill="#6395FF"/>
<path fill-rule="evenodd" clip-rule="evenodd" d="M17.3147 17.3145L35.05 32.2374L34.5859 32.7763L17.3147 17.3145Z" fill="#6294FF"/>
<path fill-rule="evenodd" clip-rule="evenodd" d="M17.3147 17.3145L34.6789 32.6688L34.2017 33.1958L17.3147 17.3145Z" fill="#6194FF"/>
<path fill-rule="evenodd" clip-rule="evenodd" d="M17.3147 17.3145L34.2974 33.0896L33.8071 33.6049L17.3147 17.3145Z" fill="#6093FF"/>
<path fill-rule="evenodd" clip-rule="evenodd" d="M17.3147 17.3145L33.9041 33.5013L33.4019 34.0048L17.3147 17.3145Z" fill="#5F92FF"/>
<path fill-rule="evenodd" clip-rule="evenodd" d="M17.3147 17.3145L33.5016 33.9038L32.9876 34.3942L17.3147 17.3145Z" fill="#5E92FF"/>
<path fill-rule="evenodd" clip-rule="evenodd" d="M17.3147 17.3145L33.0899 34.2972L32.5628 34.7744L17.3147 17.3145Z" fill="#5D91FF"/>
<path fill-rule="evenodd" clip-rule="evenodd" d="M17.3147 17.3145L32.669 34.6787L32.1302 35.1428L17.3147 17.3145Z" fill="#5C90FF"/>
<path fill-rule="evenodd" clip-rule="evenodd" d="M17.3147 17.3145L32.2377 35.0497L31.6883 35.5008L17.3147 17.3145Z" fill="#5B90FF"/>
<path fill-rule="evenodd" clip-rule="evenodd" d="M17.3147 17.3145L31.7985 35.4116L31.2373 35.8482L17.3147 17.3145Z" fill="#5A8FFF"/>
<path fill-rule="evenodd" clip-rule="evenodd" d="M17.3147 17.3145L31.3501 35.7617L30.7784 36.1852L17.3147 17.3145Z" fill="#598EFF"/>
<path fill-rule="evenodd" clip-rule="evenodd" d="M17.3147 17.3145L30.8925 36.0999L30.3117 36.509L17.3147 17.3145Z" fill="#588EFF"/>
<path fill-rule="evenodd" clip-rule="evenodd" d="M17.3147 17.3145L30.4283 36.4277L29.8357 36.8224L17.3147 17.3145Z" fill="#578DFF"/>
<path fill-rule="evenodd" clip-rule="evenodd" d="M17.3147 17.3145L29.955 36.7437L29.3532 37.1239L17.3147 17.3145Z" fill="#568CFF"/>
<path fill-rule="evenodd" clip-rule="evenodd" d="M17.3147 17.3145L29.4739 37.0479L28.8642 37.4137L17.3147 17.3145Z" fill="#558CFF"/>
<path fill-rule="evenodd" clip-rule="evenodd" d="M17.3147 17.3145L28.9861 37.3402L28.3673 37.6903L17.3147 17.3145Z" fill="#548BFF"/>
<path fill-rule="evenodd" clip-rule="evenodd" d="M17.3147 17.3145L28.4905 37.6208L27.8638 37.9551L17.3147 17.3145Z" fill="#538AFF"/>
<path fill-rule="evenodd" clip-rule="evenodd" d="M17.3147 17.3145L27.9897 37.8883L27.3538 38.2082L17.3147 17.3145Z" fill="#528AFF"/>
<path fill-rule="evenodd" clip-rule="evenodd" d="M17.3147 17.3145L27.481 38.1453L26.8385 38.4481L17.3147 17.3145Z" fill="#5189FF"/>
<path fill-rule="evenodd" clip-rule="evenodd" d="M17.3147 17.3145L26.967 38.3878L26.3167 38.6763L17.3147 17.3145Z" fill="#5088FF"/>
<path fill-rule="evenodd" clip-rule="evenodd" d="M17.3147 17.3145L26.4465 38.6186L25.7897 38.89L17.3147 17.3145Z" fill="#4F88FF"/>
<path fill-rule="evenodd" clip-rule="evenodd" d="M17.3147 17.3145L25.9208 38.8362L25.2574 39.0919L17.3147 17.3145Z" fill="#4E87FF"/>
<path fill-rule="evenodd" clip-rule="evenodd" d="M17.3147 17.3145L25.3911 39.0407L24.7211 39.2807L17.3147 17.3145Z" fill="#4D86FF"/>
<path fill-rule="evenodd" clip-rule="evenodd" d="M17.3147 17.3145L24.8548 39.2322L24.1796 39.455L17.3147 17.3145Z" fill="#4C86FF"/>
<path fill-rule="evenodd" clip-rule="evenodd" d="M17.3147 17.3145L24.3147 39.4105L23.6342 39.6176L17.3147 17.3145Z" fill="#4B85FF"/>
<path fill-rule="evenodd" clip-rule="evenodd" d="M17.3147 17.3145L23.7706 39.5757L23.0849 39.7658L17.3147 17.3145Z" fill="#4A84FF"/>
<path fill-rule="evenodd" clip-rule="evenodd" d="M17.3147 17.3145L23.2225 39.7278L22.5316 39.9008L17.3147 17.3145Z" fill="#4984FF"/>
<path fill-rule="evenodd" clip-rule="evenodd" d="M17.3147 17.3145L22.6706 39.8667L21.977 40.0214L17.3147 17.3145Z" fill="#4883FF"/>
<path fill-rule="evenodd" clip-rule="evenodd" d="M17.3147 17.3145L22.1146 39.99L21.4171 40.129L17.3147 17.3145Z" fill="#4782FF"/>
<path fill-rule="evenodd" clip-rule="evenodd" d="M17.3147 17.3145L21.5574 40.1014L20.8573 40.2234L17.3147 17.3145Z" fill="#4681FF"/>
<path fill-rule="evenodd" clip-rule="evenodd" d="M17.3147 17.3145L20.9963 40.1984L20.2935 40.3033L17.3147 17.3145Z" fill="#4581FF"/>
<path fill-rule="evenodd" clip-rule="evenodd" d="M17.3147 17.3145L20.4338 40.2824L19.7284 40.3689L17.3147 17.3145Z" fill="#4480FF"/>
<path fill-rule="evenodd" clip-rule="evenodd" d="M17.3147 17.3145L19.8687 40.3518L19.162 40.4213L17.3147 17.3145Z" fill="#437FFF"/>
<path fill-rule="evenodd" clip-rule="evenodd" d="M17.3147 17.3145L19.3036 40.4082L18.5943 40.4607L17.3147 17.3145Z" fill="#427FFF"/>
<path fill-rule="evenodd" clip-rule="evenodd" d="M17.3147 17.3145L18.7359 40.4502L18.0253 40.4843L17.3147 17.3145Z" fill="#417EFF"/>
<path fill-rule="evenodd" clip-rule="evenodd" d="M17.3147 17.3145L18.1682 40.4777L17.4563 40.4948L17.3147 17.3145Z" fill="#407DFF"/>
<path fill-rule="evenodd" clip-rule="evenodd" d="M17.3146 17.3145L17.5991 40.4908H16.8872L17.3146 17.3145Z" fill="#3F7DFF"/>
<path fill-rule="evenodd" clip-rule="evenodd" d="M17.3146 17.3145L17.0301 40.4908L16.3195 40.4738L17.3146 17.3145Z" fill="#3E7CFF"/>
<path fill-rule="evenodd" clip-rule="evenodd" d="M17.3148 17.3145L16.4612 40.4777L15.7506 40.4423L17.3148 17.3145Z" fill="#3D7BFF"/>
<path fill-rule="evenodd" clip-rule="evenodd" d="M17.3145 17.3145L15.8933 40.4502L15.184 40.3977L17.3145 17.3145Z" fill="#3C7BFF"/>
<path fill-rule="evenodd" clip-rule="evenodd" d="M17.3146 17.3145L15.3257 40.4082L14.6177 40.3387L17.3146 17.3145Z" fill="#3B7AFF"/>
<path fill-rule="evenodd" clip-rule="evenodd" d="M17.3147 17.3145L14.7593 40.3518L14.054 40.2653L17.3147 17.3145Z" fill="#3A79FF"/>
<path fill-rule="evenodd" clip-rule="evenodd" d="M17.3145 17.3145L14.1954 40.2824L13.4913 40.1775L17.3145 17.3145Z" fill="#3979FF"/>
<path fill-rule="evenodd" clip-rule="evenodd" d="M17.3145 17.3145L13.6316 40.1984L12.9315 40.0778L17.3145 17.3145Z" fill="#3878FF"/>
<path fill-rule="evenodd" clip-rule="evenodd" d="M17.3145 17.3145L13.0718 40.1014L12.3743 39.9624L17.3145 17.3145Z" fill="#3777FF"/>
<path fill-rule="evenodd" clip-rule="evenodd" d="M17.3145 17.3145L12.5146 39.99L11.8197 39.8353L17.3145 17.3145Z" fill="#3677FF"/>
<path fill-rule="evenodd" clip-rule="evenodd" d="M17.3145 17.3145L11.9587 39.8667L11.269 39.6937L17.3145 17.3145Z" fill="#3576FF"/>
<path fill-rule="evenodd" clip-rule="evenodd" d="M17.3146 17.3145L11.4068 39.7278L10.7211 39.539L17.3146 17.3145Z" fill="#3475FF"/>
<path fill-rule="evenodd" clip-rule="evenodd" d="M17.3144 17.3145L10.8586 39.5757L10.1781 39.3698L17.3144 17.3145Z" fill="#3375FF"/>
<path fill-rule="evenodd" clip-rule="evenodd" d="M17.3146 17.3145L10.3146 39.4105L9.6394 39.1876L17.3146 17.3145Z" fill="#3274FF"/>
<path fill-rule="evenodd" clip-rule="evenodd" d="M17.3146 17.3145L9.77447 39.2322L9.10449 38.9935L17.3146 17.3145Z" fill="#3173FF"/>
<path fill-rule="evenodd" clip-rule="evenodd" d="M17.3145 17.3145L9.23812 39.0407L8.57471 38.7851L17.3145 17.3145Z" fill="#3073FF"/>
<path fill-rule="evenodd" clip-rule="evenodd" d="M17.3148 17.3145L8.7074 38.8362L8.05054 38.5635L17.3148 17.3145Z" fill="#2F72FF"/>
<path fill-rule="evenodd" clip-rule="evenodd" d="M17.3146 17.3145L8.18147 38.6186L7.53247 38.3301L17.3146 17.3145Z" fill="#2E71FF"/>
<path fill-rule="evenodd" clip-rule="evenodd" d="M17.3146 17.3145L7.66222 38.3878L7.01978 38.0836L17.3146 17.3145Z" fill="#2D71FF"/>
<path fill-rule="evenodd" clip-rule="evenodd" d="M17.3146 17.3145L7.14834 38.1453L6.51245 37.8253L17.3146 17.3145Z" fill="#2C70FF"/>
<path fill-rule="evenodd" clip-rule="evenodd" d="M17.3146 17.3145L6.63965 37.8883L6.01294 37.5539L17.3146 17.3145Z" fill="#2B6FFF"/>
<path fill-rule="evenodd" clip-rule="evenodd" d="M17.3147 17.3145L6.13883 37.6208L5.51868 37.2708L17.3147 17.3145Z" fill="#2A6EFF"/>
<path fill-rule="evenodd" clip-rule="evenodd" d="M17.3147 17.3145L5.64323 37.3402L5.03357 36.9744L17.3147 17.3145Z" fill="#296EFF"/>
<path fill-rule="evenodd" clip-rule="evenodd" d="M17.3144 17.3145L5.15526 37.0479L4.55347 36.6676L17.3144 17.3145Z" fill="#286DFF"/>
<path fill-rule="evenodd" clip-rule="evenodd" d="M17.3148 17.3145L4.67444 36.7437L4.08313 36.3477L17.3148 17.3145Z" fill="#276CFF"/>
<path fill-rule="evenodd" clip-rule="evenodd" d="M17.3146 17.3145L4.20094 36.4277L3.62012 36.0187L17.3146 17.3145Z" fill="#266CFF"/>
<path fill-rule="evenodd" clip-rule="evenodd" d="M17.3146 17.3145L3.7368 36.0999L3.16516 35.6764L17.3146 17.3145Z" fill="#256BFF"/>
<path fill-rule="evenodd" clip-rule="evenodd" d="M17.3145 17.3145L3.27917 35.7617L2.71802 35.3238L17.3145 17.3145Z" fill="#246AFF"/>
<path fill-rule="evenodd" clip-rule="evenodd" d="M17.3147 17.3145L2.83097 35.4116L2.28162 34.9606L17.3147 17.3145Z" fill="#236AFF"/>
<path fill-rule="evenodd" clip-rule="evenodd" d="M17.3146 17.3145L2.39165 35.0497L1.85278 34.5856L17.3146 17.3145Z" fill="#2269FF"/>
<path fill-rule="evenodd" clip-rule="evenodd" d="M17.3146 17.3145L1.96029 34.6787L1.43323 34.2015L17.3146 17.3145Z" fill="#2168FF"/>
<path fill-rule="evenodd" clip-rule="evenodd" d="M17.3147 17.3145L1.53956 34.2972L1.02429 33.8068L17.3147 17.3145Z" fill="#2068FF"/>
<path fill-rule="evenodd" clip-rule="evenodd" d="M17.3145 17.3145L1.12761 33.9038L0.624146 33.4017L17.3145 17.3145Z" fill="#1F67FF"/>
<path fill-rule="evenodd" clip-rule="evenodd" d="M17.3145 17.3145L0.723783 33.5013L0.234741 32.9874L17.3145 17.3145Z" fill="#1E66FF"/>
<path fill-rule="evenodd" clip-rule="evenodd" d="M17.3146 17.3145L0.331856 33.0896L-0.145386 32.5626L17.3146 17.3145Z" fill="#1D66FF"/>
<path fill-rule="evenodd" clip-rule="evenodd" d="M17.3146 17.3145L-0.0496635 32.6688L-0.513794 32.1299L17.3146 17.3145Z" fill="#1C65FF"/>
<path fill-rule="evenodd" clip-rule="evenodd" d="M17.3146 17.3145L-0.420685 32.2374L-0.871704 31.6881L17.3146 17.3145Z" fill="#1B64FF"/>
<path fill-rule="evenodd" clip-rule="evenodd" d="M17.3146 17.3145L-0.782519 31.7982L-1.21912 31.2371L17.3146 17.3145Z" fill="#1A64FF"/>
<path fill-rule="evenodd" clip-rule="evenodd" d="M17.3147 17.3145L-1.13254 31.3498L-1.55603 30.7782L17.3147 17.3145Z" fill="#1963FF"/>
<path fill-rule="evenodd" clip-rule="evenodd" d="M17.3147 17.3145L-1.47082 30.8922L-1.87988 30.3114L17.3147 17.3145Z" fill="#1862FF"/>
<path fill-rule="evenodd" clip-rule="evenodd" d="M17.3148 17.3145L-1.79847 30.4281L-2.19312 29.8355L17.3148 17.3145Z" fill="#1762FF"/>
<path fill-rule="evenodd" clip-rule="evenodd" d="M17.3146 17.3145L-2.11465 29.9548L-2.49487 29.353L17.3146 17.3145Z" fill="#1661FF"/>
<path fill-rule="evenodd" clip-rule="evenodd" d="M17.3147 17.3145L-2.41875 29.4736L-2.78455 28.864L17.3147 17.3145Z" fill="#1560FF"/>
<path fill-rule="evenodd" clip-rule="evenodd" d="M17.3146 17.3145L-2.71121 28.9859L-3.06128 28.3671L17.3146 17.3145Z" fill="#1460FF"/>
<path fill-rule="evenodd" clip-rule="evenodd" d="M17.3146 17.3145L-2.99175 28.4903L-3.32739 27.8636L17.3146 17.3145Z" fill="#135FFF"/>
<path fill-rule="evenodd" clip-rule="evenodd" d="M17.3148 17.3145L-3.26038 27.9895L-3.57898 27.3536L17.3148 17.3145Z" fill="#125EFF"/>
<path fill-rule="evenodd" clip-rule="evenodd" d="M17.3146 17.3145L-3.51623 27.4807L-3.81909 26.8383L17.3146 17.3145Z" fill="#115EFF"/>
<path fill-rule="evenodd" clip-rule="evenodd" d="M17.3146 17.3145L-3.7588 26.9668L-4.04724 26.3165L17.3146 17.3145Z" fill="#105DFF"/>
<path fill-rule="evenodd" clip-rule="evenodd" d="M17.3146 17.3145L-3.9895 26.4463L-4.26221 25.7894L17.3146 17.3145Z" fill="#0F5CFF"/>
<path fill-rule="evenodd" clip-rule="evenodd" d="M17.3146 17.3145L-4.2071 25.9205L-4.46277 25.2571L17.3146 17.3145Z" fill="#0E5BFF"/>
<path fill-rule="evenodd" clip-rule="evenodd" d="M17.3146 17.3145L-4.41168 25.3908L-4.65161 24.7209L17.3146 17.3145Z" fill="#0D5BFF"/>
<path fill-rule="evenodd" clip-rule="evenodd" d="M17.3145 17.3145L-4.60447 24.8546L-4.82605 24.1794L17.3145 17.3145Z" fill="#0C5AFF"/>
<path fill-rule="evenodd" clip-rule="evenodd" d="M17.3146 17.3145L-4.78268 24.3144L-4.98853 23.634L17.3146 17.3145Z" fill="#0B59FF"/>
<path fill-rule="evenodd" clip-rule="evenodd" d="M17.3146 17.3145L-4.94792 23.7703L-5.13672 23.0846L17.3146 17.3145Z" fill="#0A59FF"/>
<path fill-rule="evenodd" clip-rule="evenodd" d="M17.3146 17.3145L-5.09866 23.2223L-5.27173 22.5313L17.3146 17.3145Z" fill="#0958FF"/>
<path fill-rule="evenodd" clip-rule="evenodd" d="M17.3147 17.3145L-5.23762 22.6703L-5.39233 21.9767L17.3147 17.3145Z" fill="#0857FF"/>
<path fill-rule="evenodd" clip-rule="evenodd" d="M17.3146 17.3145L-5.36221 22.1144L-5.49988 21.4169L17.3146 17.3145Z" fill="#0757FF"/>
<path fill-rule="evenodd" clip-rule="evenodd" d="M17.3147 17.3145L-5.47231 21.5572L-5.59424 20.8571L17.3147 17.3145Z" fill="#0656FF"/>
<path fill-rule="evenodd" clip-rule="evenodd" d="M17.3146 17.3145L-5.56943 20.996L-5.67432 20.2933L17.3146 17.3145Z" fill="#0555FF"/>
<path fill-rule="evenodd" clip-rule="evenodd" d="M17.3147 17.3145L-5.65321 20.4336L-5.73975 19.7282L17.3147 17.3145Z" fill="#0455FF"/>
<path fill-rule="evenodd" clip-rule="evenodd" d="M17.3145 17.3145L-5.72287 19.8685L-5.79236 19.1618L17.3145 17.3145Z" fill="#0354FF"/>
<path fill-rule="evenodd" clip-rule="evenodd" d="M17.3147 17.3145L-5.7791 19.3034L-5.83154 18.5941L17.3147 17.3145Z" fill="#0253FF"/>
<path fill-rule="evenodd" clip-rule="evenodd" d="M17.3147 17.3145L-5.82101 18.7357L-5.8551 18.0251L17.3147 17.3145Z" fill="#0153FF"/>
<path fill-rule="evenodd" clip-rule="evenodd" d="M17.3147 17.3145L-5.84856 18.168L-5.8656 17.4561L17.3147 17.3145Z" fill="#0052FF"/>
<path fill-rule="evenodd" clip-rule="evenodd" d="M17.3146 17.3148L-5.86304 17.5993V17.0303L17.3146 17.3148Z" fill="white"/>
</g>
</svg>
