<svg width="41" height="42" viewBox="0 0 41 42" fill="none" xmlns="http://www.w3.org/2000/svg">
<rect x="0.109375" y="0.917969" width="40.4398" height="40.4398" rx="20.2199" fill="#F8F8F8"/>
<path d="M18.7812 19.3994C18.7812 19.876 18.9136 19.9466 19.2137 20.0525L19.6639 20.2114V18.7109H19.3991C19.0637 18.7109 18.7812 19.0199 18.7812 19.3994Z" fill="black"/>
<path d="M20.9883 23.5649H21.2531C21.5973 23.5649 21.8709 23.256 21.8709 22.8765C21.8709 22.3998 21.7385 22.3292 21.4384 22.2233L20.9883 22.0645V23.5649Z" fill="black"/>
<path d="M27.0163 15.384L25.207 17.1934C25.0746 17.3257 24.9069 17.3875 24.7392 17.3875C24.5715 17.3875 24.4038 17.3257 24.2714 17.1934C24.0155 16.9374 24.0155 16.5137 24.2714 16.2578L26.0808 14.4484C24.5274 13.1245 22.5238 12.3125 20.3261 12.3125C15.4541 12.3125 11.5 16.2666 11.5 21.1386C11.5 26.0107 15.4541 29.9648 20.3261 29.9648C25.1982 29.9648 29.1523 26.0107 29.1523 21.1386C29.1523 18.9409 28.3403 16.9374 27.0163 15.384ZM21.8707 20.9798C22.4356 21.1828 23.1946 21.5888 23.1946 22.8862C23.1946 23.9895 22.3208 24.8986 21.2529 24.8986H20.9881V25.1192C20.9881 25.4811 20.688 25.7812 20.3261 25.7812C19.9643 25.7812 19.6642 25.4811 19.6642 25.1192V24.8986H19.5936C18.4197 24.8986 17.4576 23.91 17.4576 22.692C17.4576 22.3213 17.7577 22.0213 18.1196 22.0213C18.4815 22.0213 18.7816 22.3213 18.7816 22.6832C18.7816 23.1686 19.1434 23.5658 19.5936 23.5658H19.6642V21.6064L18.7816 21.2975C18.2167 21.0945 17.4576 20.6885 17.4576 19.3911C17.4576 18.2878 18.3314 17.3787 19.3994 17.3787H19.6642V17.1669C19.6642 16.805 19.9643 16.5049 20.3261 16.5049C20.688 16.5049 20.9881 16.805 20.9881 17.1669V17.3875H21.0587C22.2326 17.3875 23.1946 18.3761 23.1946 19.5941C23.1946 19.9559 22.8945 20.256 22.5327 20.256C22.1708 20.256 21.8707 19.9559 21.8707 19.5941C21.8707 19.1086 21.5088 18.7115 21.0587 18.7115H20.9881V20.6709L21.8707 20.9798Z" fill="black"/>
<path d="M29.7624 12.0564C29.6917 11.8975 29.5682 11.7651 29.4005 11.6945C29.321 11.668 29.2416 11.6504 29.1534 11.6504H25.6229C25.261 11.6504 24.9609 11.9505 24.9609 12.3124C24.9609 12.6742 25.261 12.9743 25.6229 12.9743H27.5558L26.0819 14.4483C26.4173 14.7395 26.7262 15.0485 27.0174 15.3838L28.4914 13.9099V15.8428C28.4914 16.2047 28.7915 16.5048 29.1534 16.5048C29.5152 16.5048 29.8153 16.2047 29.8153 15.8428V12.3124C29.8153 12.2241 29.7977 12.1447 29.7624 12.0564Z" fill="url(#paint0_linear_1616_5404)"/>
<defs>
<linearGradient id="paint0_linear_1616_5404" x1="36.2143" y1="5.25175" x2="27.3881" y2="16.5048" gradientUnits="userSpaceOnUse">
<stop offset="0.707245"/>
<stop offset="1" stop-color="#BBBBBB" stop-opacity="0"/>
</linearGradient>
</defs>
</svg>
