<svg width="24" height="25" viewBox="0 0 24 25" fill="none" xmlns="http://www.w3.org/2000/svg">
<g clip-path="url(#clip0_1616_3966)">
<path d="M23.6125 12.5328C23.6125 11.5613 23.5336 10.8524 23.363 10.1172H12.2695V14.502H18.7812C18.6499 15.5917 17.941 17.2328 16.3656 18.3355L16.3435 18.4823L19.851 21.1996L20.094 21.2238C22.3258 19.1626 23.6125 16.13 23.6125 12.5328Z" fill="#4285F4"/>
<path d="M12.2701 24.0842C15.4603 24.0842 18.1384 23.0338 20.0946 21.2222L16.3661 18.3339C15.3684 19.0297 14.0293 19.5154 12.2701 19.5154C9.14557 19.5154 6.49365 17.4543 5.54832 14.6055L5.40975 14.6172L1.76254 17.4398L1.71484 17.5724C3.65783 21.4322 7.64887 24.0842 12.2701 24.0842Z" fill="#34A853"/>
<path d="M5.5508 14.6084C5.30137 13.8732 5.15701 13.0855 5.15701 12.2716C5.15701 11.4575 5.30137 10.6699 5.53768 9.93469L5.53107 9.77811L1.83815 6.91016L1.71733 6.96763C0.91653 8.56931 0.457031 10.3679 0.457031 12.2716C0.457031 14.1752 0.91653 15.9737 1.71733 17.5754L5.5508 14.6084Z" fill="#FBBC05"/>
<path d="M12.2701 5.02373C14.4888 5.02373 15.9854 5.9821 16.8388 6.78299L20.1734 3.52712C18.1254 1.62351 15.4603 0.455078 12.2701 0.455078C7.64887 0.455078 3.65783 3.10699 1.71484 6.96671L5.53519 9.93377C6.49365 7.08492 9.14557 5.02373 12.2701 5.02373Z" fill="#EB4335"/>
</g>
<defs>
<clipPath id="clip0_1616_3966">
<rect width="23.1585" height="23.6988" fill="white" transform="translate(0.457031 0.419922)"/>
</clipPath>
</defs>
</svg>
