<svg width="26" height="24" viewBox="0 0 26 24" fill="none" xmlns="http://www.w3.org/2000/svg">
<path d="M19.1697 0.137695H6.79627C3.37787 0.137695 0.596924 2.91946 0.596924 6.33886V17.6621C0.596924 21.0815 3.37787 23.8633 6.79627 23.8633H19.1697C22.5881 23.8633 25.3691 21.0815 25.3691 17.6621V6.33886C25.3691 2.91946 22.5881 0.137695 19.1697 0.137695ZM2.78386 6.33886C2.78386 4.12606 4.58412 2.32527 6.79627 2.32527H19.1697C21.3819 2.32527 23.1821 4.12606 23.1821 6.33886V17.6621C23.1821 19.8749 21.3819 21.6757 19.1697 21.6757H6.79627C4.58412 21.6757 2.78386 19.8749 2.78386 17.6621V6.33886Z" fill="white"/>
<path d="M12.983 17.7672C16.1618 17.7672 18.7494 15.1803 18.7494 11.9991C18.7494 8.81793 16.1632 6.23096 12.983 6.23096C9.80277 6.23096 7.21655 8.81793 7.21655 11.9991C7.21655 15.1803 9.80277 17.7672 12.983 17.7672ZM12.983 8.41993C14.957 8.41993 16.5625 10.0259 16.5625 12.0005C16.5625 13.9751 14.957 15.5811 12.983 15.5811C11.009 15.5811 9.40349 13.9751 9.40349 12.0005C9.40349 10.0259 11.009 8.41993 12.983 8.41993Z" fill="white"/>
<path d="M19.2832 7.16299C20.1392 7.16299 20.8369 6.46649 20.8369 5.60884C20.8369 4.75118 20.1406 4.05469 19.2832 4.05469C18.4258 4.05469 17.7295 4.75118 17.7295 5.60884C17.7295 6.46649 18.4258 7.16299 19.2832 7.16299Z" fill="white"/>
</svg>
