<svg width="21" height="21" viewBox="0 0 21 21" fill="none" xmlns="http://www.w3.org/2000/svg">
<g clip-path="url(#clip0_608_2026)">
<path d="M14.6702 1.50586L15.7692 3.56654L17.8298 4.66558L15.7692 5.76462L14.6702 7.8253L13.5711 5.76462L11.5104 4.66558L13.5711 3.56654L14.6702 1.50586ZM7.17014 4.11003L9.39235 8.27669L13.559 10.4989L9.39235 12.7211L7.17014 16.8878L4.94791 12.7211L0.78125 10.4989L4.94791 8.27669L7.17014 4.11003ZM16.8923 14.11L15.5035 11.5059L14.1146 14.11L11.5104 15.4989L14.1146 16.8878L15.5035 19.4919L16.8923 16.8878L19.4965 15.4989L16.8923 14.11Z" fill="black"/>
</g>
<defs>
<clipPath id="clip0_608_2026">
<rect width="20" height="20" fill="white" transform="translate(0.5 0.5)"/>
</clipPath>
</defs>
</svg>
