<svg width="24" height="24" viewBox="0 0 24 24" fill="none" xmlns="http://www.w3.org/2000/svg">
<path d="M1.53642 5.2948C1.00965 4.80571 0.747681 4.20031 0.747681 3.48C0.747681 2.75968 1.01105 2.12765 1.53642 1.63716C2.06319 1.14807 2.74127 0.902832 3.57205 0.902832C4.40283 0.902832 5.0543 1.14807 5.57966 1.63716C6.10643 2.12625 6.3684 2.74146 6.3684 3.48C6.3684 4.21853 6.10503 4.80571 5.57966 5.2948C5.0529 5.78388 4.38462 6.02913 3.57205 6.02913C2.75948 6.02913 2.06319 5.78388 1.53642 5.2948ZM5.9257 8.10039V23.0953H1.18898V8.10039H5.9257Z" fill="#FEFFFC"/>
<path d="M21.6938 9.58157C22.7263 10.7027 23.2419 12.2414 23.2419 14.2006V22.8304H18.7434V14.8088C18.7434 13.8208 18.487 13.0528 17.9756 12.5063C17.4643 11.9597 16.775 11.6851 15.912 11.6851C15.049 11.6851 14.3597 11.9583 13.8483 12.5063C13.3369 13.0528 13.0806 13.8208 13.0806 14.8088V22.8304H8.55542V8.05826H13.0806V10.0174C13.5387 9.36436 14.1565 8.84865 14.9327 8.46888C15.7088 8.0891 16.5816 7.8999 17.5525 7.8999C19.2813 7.8999 20.6627 8.46046 21.6938 9.58017V9.58157Z" fill="#FEFFFC"/>
</svg>
