<svg width="33" height="34" viewBox="0 0 33 34" fill="none" xmlns="http://www.w3.org/2000/svg">
<path d="M30.8174 14.3201C31.5458 12.0944 31.303 9.626 30.1295 7.60269C28.349 4.4868 24.7475 2.90862 21.227 3.63701C19.6893 1.89697 17.4232 0.925781 15.0761 0.925781C11.4746 0.925781 8.31827 3.23235 7.18522 6.63151C4.87865 7.1171 2.89581 8.53342 1.72229 10.5972C-0.0582191 13.7131 0.346442 17.5978 2.73394 20.2686C2.00555 22.5347 2.28882 24.9627 3.46234 26.986C5.24285 30.1019 8.84433 31.7205 12.3649 30.9517C13.9431 32.6917 16.1687 33.7034 18.5157 33.7034C22.1172 33.7034 25.2736 31.3968 26.4066 27.9976C28.7132 27.512 30.696 26.0957 31.8696 24.0319C33.6501 20.9161 33.2454 16.9908 30.8174 14.3201ZM18.5157 31.5586C17.059 31.5586 15.6831 31.0731 14.5905 30.1423C14.631 30.1019 14.7524 30.0614 14.7929 30.0209L21.3079 26.2576C21.6316 26.0553 21.834 25.7315 21.834 25.3269V16.141L24.5857 17.7192C24.6261 17.7192 24.6261 17.7597 24.6261 17.8002V25.4078C24.6666 28.807 21.9149 31.5586 18.5157 31.5586ZM5.32378 25.9339C4.59539 24.6794 4.35259 23.2226 4.59539 21.8063C4.63585 21.8468 4.71679 21.8872 4.79772 21.9277L11.3128 25.6911C11.6365 25.8934 12.0412 25.8934 12.3649 25.6911L20.3367 21.0779V24.2747C20.3367 24.3152 20.3367 24.3557 20.2962 24.3557L13.7003 28.1595C10.7867 29.8591 7.02336 28.8474 5.32378 25.9339ZM3.6242 11.6898C4.35259 10.4353 5.48564 9.5046 6.82102 8.97854V16.748C6.82102 17.1122 7.02336 17.4764 7.34709 17.6788L15.3189 22.2919L12.5672 23.8701C12.5268 23.8701 12.4863 23.9105 12.4863 23.8701L5.8903 20.0663C2.89581 18.3667 1.92462 14.6033 3.6242 11.6898ZM26.2852 16.9504L18.3134 12.3372L21.0651 10.7591C21.1056 10.7591 21.146 10.7186 21.146 10.7591L27.742 14.5629C30.6961 16.2624 31.6672 20.0258 29.9677 22.9394C29.2393 24.1938 28.1062 25.1245 26.7708 25.6101V17.8811C26.8113 17.5169 26.609 17.1527 26.2852 16.9504ZM28.9965 12.8228C28.956 12.7824 28.8751 12.7419 28.7941 12.7014L22.2791 8.93808C21.9554 8.73575 21.5507 8.73575 21.227 8.93808L13.2551 13.5512V10.3544C13.2551 10.3139 13.2551 10.2735 13.2956 10.2735L19.8916 6.46964C22.8456 4.77006 26.5685 5.78172 28.2681 8.73575C28.9965 9.94973 29.2393 11.4065 28.9965 12.8228ZM11.7579 18.4881L9.0062 16.9099C8.96573 16.9099 8.96573 16.8694 8.96573 16.829V9.22134C8.96573 5.82218 11.7174 3.07049 15.1166 3.07049C16.5734 3.07049 17.9492 3.55608 19.0418 4.4868C19.0013 4.52727 18.9204 4.56773 18.8395 4.6082L12.3244 8.37155C12.0007 8.57388 11.7984 8.89761 11.7984 9.30227V18.4881H11.7579ZM13.2551 15.2508L16.8162 13.187L20.3772 15.2508V19.3379L16.8162 21.4016L13.2551 19.3379V15.2508Z" fill="white"/>
</svg>
