<svg width="25" height="24" viewBox="0 0 25 24" fill="none" xmlns="http://www.w3.org/2000/svg">
<mask id="mask0_2210_11443" style="mask-type:alpha" maskUnits="userSpaceOnUse" x="0" y="0" width="25" height="24">
<rect x="0.5" width="24" height="24" fill="#D9D9D9"/>
</mask>
<g mask="url(#mask0_2210_11443)">
<path d="M11.5 21.725V12.575L3.5 7.95V15.975C3.5 16.3417 3.5875 16.675 3.7625 16.975C3.9375 17.275 4.18333 17.5167 4.5 17.7L11.5 21.725ZM13.5 21.725L20.5 17.7C20.8167 17.5167 21.0625 17.275 21.2375 16.975C21.4125 16.675 21.5 16.3417 21.5 15.975V7.95L13.5 12.575V21.725ZM17.475 7.975L20.425 6.25L13.5 2.275C13.1833 2.09167 12.85 2 12.5 2C12.15 2 11.8167 2.09167 11.5 2.275L9.525 3.4L17.475 7.975ZM12.5 10.85L15.475 9.15L7.55 4.55L4.55 6.275L12.5 10.85Z" fill="white"/>
</g>
</svg>
