<svg width="42" height="42" viewBox="0 0 42 42" fill="none" xmlns="http://www.w3.org/2000/svg">
<rect x="0.804688" y="0.917969" width="40.4398" height="40.4398" rx="20.2199" fill="#F7F9FA"/>
<g clip-path="url(#clip0_1616_5447)">
<path d="M18.1786 22.8102V25.5352H23.6286V22.8102H29.987V29.1685C29.987 29.6702 29.5803 30.0768 29.0786 30.0768H12.7286C12.227 30.0768 11.8203 29.6702 11.8203 29.1685V22.8102H18.1786ZM19.9953 20.9935H21.812V23.7185H19.9953V20.9935ZM16.362 15.5435V12.8185C16.362 12.3168 16.7687 11.9102 17.2703 11.9102H24.537C25.0387 11.9102 25.4453 12.3168 25.4453 12.8185V15.5435H29.0786C29.5803 15.5435 29.987 15.9502 29.987 16.4518V20.9935H23.6286V19.1768H18.1786V20.9935H11.8203V16.4518C11.8203 15.9502 12.227 15.5435 12.7286 15.5435H16.362ZM18.1786 13.7268V15.5435H23.6286V13.7268H18.1786Z" fill="black"/>
</g>
<defs>
<clipPath id="clip0_1616_5447">
<rect width="21.8" height="21.8" fill="white" transform="translate(10.0039 11.002)"/>
</clipPath>
</defs>
</svg>
