<svg width="42" height="27" viewBox="0 0 42 27" fill="none" xmlns="http://www.w3.org/2000/svg">
<path d="M9.39454 0.567383C10.0452 0.567452 10.6216 0.954399 10.8633 1.55273L16.376 15.2881C16.5247 15.6563 16.5247 16.0709 16.376 16.4482L12.9082 25.0742C12.3781 26.3902 10.5007 26.3902 9.97071 25.0742L1.00001 2.71289C0.590966 1.68182 1.35318 0.567383 2.46876 0.567383H9.39454ZM34.8486 0.567383C35.4994 0.567385 36.0757 0.954347 36.3174 1.55273L41.8301 15.2881C41.9788 15.6563 41.9788 16.0708 41.8301 16.4482L38.3623 25.0742C37.8322 26.3901 35.9548 26.3903 35.4248 25.0742L26.4541 2.71289C26.0451 1.68182 26.8073 0.567383 27.9229 0.567383H34.8486ZM21.8984 0.567383C22.5678 0.567383 23.1626 0.981858 23.3858 1.59863L28.3965 15.334C28.5173 15.6745 28.5172 16.0516 28.3965 16.4014L25.3848 24.6592C24.8828 26.0401 22.9122 26.0401 22.4102 24.6592L14.3779 2.66602C14.0064 1.64426 14.7684 0.567383 15.8652 0.567383H21.8984Z" fill="url(#paint0_linear_919_37)"/>
<defs>
<linearGradient id="paint0_linear_919_37" x1="21.4428" y1="-5.45199" x2="49.7665" y2="32.7071" gradientUnits="userSpaceOnUse">
<stop stop-color="#F213A4"/>
<stop offset="1" stop-color="#5204BF"/>
</linearGradient>
</defs>
</svg>
