<svg width="38" height="38" viewBox="0 0 38 38" fill="none" xmlns="http://www.w3.org/2000/svg">
<g clip-path="url(#clip0_1616_4788)">
<path d="M18.7588 19.8417L25.2794 26.3608L23.1049 28.5354L20.2956 25.7261V34.3091H17.222V25.7231L14.4128 28.5354L12.2382 26.3608L18.7588 19.8417ZM18.7588 3.57324C21.3975 3.57337 23.9441 4.54313 25.9144 6.29816C27.8848 8.05319 29.1415 10.4711 29.4457 13.0921C31.3579 13.6136 33.026 14.7905 34.1585 16.417C35.291 18.0436 35.8159 20.0165 35.6415 21.9908C35.467 23.9651 34.6043 25.8153 33.204 27.2181C31.8038 28.6208 29.9551 29.4869 27.9811 29.6649V26.5698C28.6883 26.4688 29.3683 26.228 29.9814 25.8613C30.5945 25.4947 31.1284 25.0096 31.552 24.4343C31.9755 23.8591 32.2803 23.2052 32.4484 22.5109C32.6165 21.8166 32.6446 21.0958 32.5311 20.3905C32.4176 19.6852 32.1648 19.0096 31.7873 18.4031C31.4099 17.7966 30.9154 17.2713 30.3327 16.858C29.7501 16.4447 29.0909 16.1516 28.3938 15.9958C27.6966 15.84 26.9754 15.8246 26.2722 15.9506C26.5129 14.8301 26.4999 13.6699 26.2341 12.5551C25.9684 11.4403 25.4566 10.399 24.7363 9.50762C24.0161 8.61619 23.1055 7.89718 22.0713 7.40323C21.0372 6.90929 19.9057 6.65293 18.7596 6.65293C17.6135 6.65293 16.482 6.90929 15.4478 7.40323C14.4137 7.89718 13.5031 8.61619 12.7829 9.50762C12.0626 10.399 11.5508 11.4403 11.2851 12.5551C11.0193 13.6699 11.0063 14.8301 11.247 15.9506C9.84489 15.6873 8.39564 15.9917 7.21803 16.797C6.04043 17.6022 5.23094 18.8423 4.96764 20.2444C4.70434 21.6465 5.0088 23.0957 5.81405 24.2733C6.61929 25.4509 7.85936 26.2604 9.26144 26.5237L9.53806 26.5698V29.6649C7.56398 29.4872 5.71514 28.6213 4.31471 27.2187C2.91427 25.816 2.0513 23.9658 1.87664 21.9915C1.70198 20.0171 2.22673 18.0441 3.35918 16.4174C4.49163 14.7907 6.15974 13.6137 8.07196 13.0921C8.37579 10.471 9.63243 8.05286 11.6029 6.29777C13.5733 4.54268 16.1201 3.57303 18.7588 3.57324Z" fill="black"/>
</g>
<defs>
<clipPath id="clip0_1616_4788">
<rect width="36.8831" height="36.8831" fill="white" transform="translate(0.320312 0.499023)"/>
</clipPath>
</defs>
</svg>
