<svg width="20" height="20" viewBox="0 0 20 20" fill="none" xmlns="http://www.w3.org/2000/svg">
<g clip-path="url(#clip0_1634_1224)">
<mask id="mask0_1634_1224" style="mask-type:alpha" maskUnits="userSpaceOnUse" x="0" y="0" width="20" height="20">
<path d="M0 0H19.697V20H0V0Z" fill="white"/>
</mask>
<g mask="url(#mask0_1634_1224)">
<path fill-rule="evenodd" clip-rule="evenodd" d="M9.84848 0C15.2878 0 19.697 4.47705 19.697 10C19.697 15.5225 15.2878 20 9.84848 20C4.40921 20 0 15.5225 0 10C0 4.47705 4.40921 0 9.84848 0Z" fill="#2775CA"/>
</g>
<path fill-rule="evenodd" clip-rule="evenodd" d="M8.00306 16.9522C8.00306 17.1875 7.82165 17.3211 7.59759 17.2501C4.61988 16.2855 2.46094 13.4504 2.46094 10.1052C2.46094 6.76007 4.61988 3.92485 7.59759 2.9603C7.82165 2.88973 8.00306 3.02292 8.00306 3.25814V3.83883C8.00306 3.99542 7.88354 4.17973 7.73659 4.23076C5.38068 5.10917 3.69301 7.40723 3.69301 10.1012C3.69301 12.7952 5.38068 15.0937 7.73659 15.9717C7.88354 16.0267 8.00306 16.2069 8.00306 16.3641V16.9522Z" fill="white"/>
<path fill-rule="evenodd" clip-rule="evenodd" d="M10.4614 14.7919C10.4614 14.9646 10.3224 15.1057 10.1525 15.1057H9.5383C9.36841 15.1057 9.22941 14.9646 9.22941 14.7919V13.8038C7.88532 13.6196 7.22894 12.8547 7.05122 11.8156C7.02022 11.6389 7.15922 11.4782 7.33694 11.4782H8.03987C8.18659 11.4782 8.31026 11.5842 8.34115 11.733C8.47254 12.3527 8.82395 12.8272 9.90135 12.8272C10.697 12.8272 11.261 12.3762 11.261 11.702C11.261 11.0272 10.9287 10.7724 9.76235 10.5762C8.03987 10.341 7.22502 9.81141 7.22502 8.43891C7.22502 7.38016 8.01301 6.55675 9.23333 6.38016V5.41152C9.23333 5.23891 9.37244 5.09766 9.54222 5.09766H10.1564C10.3263 5.09766 10.4653 5.23891 10.4653 5.41152V6.40766C11.4579 6.58834 12.0874 7.1605 12.2922 8.10947C12.3307 8.29016 12.1917 8.45845 12.0103 8.45845H11.3613C11.2223 8.45845 11.1064 8.36425 11.064 8.22709C10.8902 7.62345 10.4653 7.3647 9.72755 7.3647C8.9127 7.3647 8.49167 7.76459 8.49167 8.32527C8.49167 8.91743 8.73128 9.21527 9.98271 9.39993C11.6741 9.63516 12.5471 10.1253 12.5471 11.5883C12.5471 12.698 11.736 13.5961 10.4653 13.8038V14.7919H10.4614Z" fill="white"/>
<path fill-rule="evenodd" clip-rule="evenodd" d="M12.1008 17.2497C11.8769 17.3207 11.6953 17.1871 11.6953 16.9518V16.3716C11.6953 16.199 11.7996 16.0383 11.9618 15.9792C14.3177 15.1008 16.0054 12.8028 16.0054 10.1088C16.0054 7.4148 14.3177 5.11673 11.9618 4.23832C11.8151 4.18332 11.6953 4.00309 11.6953 3.84594V3.26571C11.6953 3.03048 11.8769 2.89332 12.1008 2.96741C15.0785 3.93253 17.2374 6.76764 17.2374 10.1128C17.2337 13.4499 15.0785 16.2812 12.1008 17.2497Z" fill="white"/>
</g>
<defs>
<clipPath id="clip0_1634_1224">
<rect width="19.697" height="20" fill="white"/>
</clipPath>
</defs>
</svg>
