<svg width="24" height="24" viewBox="0 0 24 24" fill="none" xmlns="http://www.w3.org/2000/svg">
<rect width="24" height="24" rx="4" fill="#141414"/>
<path d="M5.86453 7.47027C9.25284 4.15379 14.7472 4.15379 18.1355 7.47027L18.5435 7.86926C18.5837 7.90824 18.6157 7.9549 18.6375 8.00647C18.6594 8.05804 18.6706 8.11348 18.6706 8.16949C18.6706 8.22549 18.6594 8.28093 18.6375 8.3325C18.6157 8.38407 18.5837 8.43073 18.5435 8.46971L17.1484 9.83502C17.1073 9.87489 17.0522 9.89719 16.995 9.89719C16.9377 9.89719 16.8826 9.87489 16.8415 9.83502L16.2803 9.28564C13.9167 6.97252 10.0839 6.97252 7.71974 9.28564L7.11873 9.87374C7.07759 9.91361 7.02255 9.93591 6.96525 9.93591C6.90796 9.93591 6.85292 9.91361 6.81178 9.87374L5.41672 8.50843C5.3765 8.46945 5.34452 8.42279 5.32268 8.37122C5.30085 8.31965 5.28959 8.26421 5.28959 8.20821C5.28959 8.1522 5.30085 8.09676 5.32268 8.04519C5.34452 7.99362 5.3765 7.94696 5.41672 7.90798L5.86453 7.47027ZM21.021 10.2935L22.2623 11.509C22.3025 11.548 22.3345 11.5946 22.3564 11.6462C22.3782 11.6978 22.3895 11.7532 22.3895 11.8092C22.3895 11.8652 22.3782 11.9206 22.3564 11.9722C22.3345 12.0238 22.3025 12.0704 22.2623 12.1094L16.6641 17.5886C16.5819 17.6685 16.4718 17.7132 16.3572 17.7132C16.2426 17.7132 16.1325 17.6685 16.0502 17.5886L12.0772 13.6998C12.0566 13.6797 12.029 13.6684 12.0003 13.6684C11.9716 13.6684 11.944 13.6797 11.9234 13.6998L7.95038 17.5886C7.86816 17.6685 7.75805 17.7132 7.64342 17.7132C7.52879 17.7132 7.41868 17.6685 7.33646 17.5886L1.73772 12.1094C1.6975 12.0704 1.66552 12.0238 1.64369 11.9722C1.62185 11.9206 1.6106 11.8652 1.6106 11.8092C1.6106 11.7532 1.62185 11.6978 1.64369 11.6462C1.66552 11.5946 1.6975 11.548 1.73772 11.509L2.97958 10.2935C3.06177 10.2138 3.17176 10.1692 3.28626 10.1692C3.40075 10.1692 3.51074 10.2138 3.59293 10.2935L7.56598 14.1824C7.58653 14.2025 7.61413 14.2137 7.64286 14.2137C7.6716 14.2137 7.69919 14.2025 7.71974 14.1824L11.6928 10.2935C11.775 10.2136 11.8851 10.1689 11.9997 10.1689C12.1144 10.1689 12.2245 10.2136 12.3067 10.2935L16.2803 14.1824C16.3009 14.2025 16.3285 14.2137 16.3572 14.2137C16.3859 14.2137 16.4135 14.2025 16.4341 14.1824L20.4071 10.2935C20.4893 10.2136 20.5994 10.1689 20.7141 10.1689C20.8287 10.1689 20.9388 10.2136 21.021 10.2935Z" fill="white"/>
</svg>
